# xmcd
#
# Track frame offsets: 
#        150
#        12012
#        23450
#        41075
#        54700
#        65862
#        80750
#        95600
#        111662
#        122262
#        134562
#        144475
#        158425
#        170562
#        184137
#        194225
#        205387
#        220312
#        234375
#        254462
#        266012
#        279850
#        295512
#        308550
#
# Disc length: 4264 seconds
#
# Revision: 0
# Processed by: cddbd v1.5.2PL0 Copyright (c) Steve Scherf et al.
# Submitted via: ExactAudioCopy v0.95b4
#
DISCID=6710a618
DTITLE=Frankie Laine - Call of the Wild - Wanderlust
DYEAR=1962
DGENRE=Oldies
TTITLE0=Song of the Open Road
TTITLE1=North to Alaska
TTITLE2=The Swamp Girl
TTITLE3=Beyond the Blue Horizon
TTITLE4=Call of the Wild
TTITLE5=On the Trail
TTITLE6=The Wayfaring Stranger
TTITLE7=Tumbling Tumbleweeds
TTITLE8=The High Road
TTITLE9=Rolling Stone
TTITLE10=The New Frontier
TTITLE11=The Girl in the Wood
TTITLE12=Love Is Where You Find It
TTITLE13=Serenade
TTITLE14=Wagon Wheels
TTITLE15=I Let Her Go
TTITLE16=Misirlou
TTITLE17=Riders in the Sky
TTITLE18=De Glory Road
TTITLE19=What Kind of Fool Am I?
TTITLE20=On the Road to Mandalay
TTITLE21=If I Love Again
TTITLE22=The Moment of Truth
TTITLE23=I'm Gonna Live 'Till I Die
EXTD=
EXTT0=
EXTT1=
EXTT2=
EXTT3=
EXTT4=
EXTT5=
EXTT6=
EXTT7=
EXTT8=
EXTT9=
EXTT10=
EXTT11=
EXTT12=
EXTT13=
EXTT14=
EXTT15=
EXTT16=
EXTT17=
EXTT18=
EXTT19=
EXTT20=
EXTT21=
EXTT22=
EXTT23=
PLAYORDER=
